<?xml version="1.0" encoding="UTF-8" standalone="no"?>
<!-- Generator: Adobe Illustrator 14.0.0, SVG Export Plug-In . SVG Version: 6.00 Build 43363)  -->

<svg
   xmlns:dc="http://purl.org/dc/elements/1.1/"
   xmlns:cc="http://creativecommons.org/ns#"
   xmlns:rdf="http://www.w3.org/1999/02/22-rdf-syntax-ns#"
   xmlns:svg="http://www.w3.org/2000/svg"
   xmlns="http://www.w3.org/2000/svg"
   xmlns:sodipodi="http://sodipodi.sourceforge.net/DTD/sodipodi-0.dtd"
   xmlns:inkscape="http://www.inkscape.org/namespaces/inkscape"
   version="1.1"
   id="svg1901"
   inkscape:version="0.92.2 5c3e80d, 2017-08-06"
   sodipodi:docname="key.svg"
   x="0px"
   y="0px"
   width="56.528"
   height="57.114666"
   viewBox="0 0 52.995 53.544998"
   enable-background="new 1262.25 633.001 54.167 55"
   xml:space="preserve"><metadata
     id="metadata8661"><rdf:RDF><cc:Work
         rdf:about=""><dc:format>image/svg+xml</dc:format><dc:type
           rdf:resource="http://purl.org/dc/dcmitype/StillImage" /><dc:title></dc:title></cc:Work></rdf:RDF></metadata><sodipodi:namedview
     id="namedview1769"
     showgrid="false"
     pagecolor="#ffffff"
     bordercolor="#666666"
     inkscape:cy="24.429756"
     guidetolerance="10"
     inkscape:cx="38.077441"
     gridtolerance="10"
     inkscape:zoom="7.5916409"
     objecttolerance="10"
     borderopacity="1"
     inkscape:current-layer="layer2"
     inkscape:window-y="1"
     inkscape:window-x="0"
     inkscape:snap-grids="true"
     inkscape:window-height="803"
     inkscape:window-width="1440"
     inkscape:pageshadow="2"
     inkscape:pageopacity="0"
     inkscape:window-maximized="1"
     fit-margin-top="0"
     fit-margin-left="0"
     fit-margin-right="0"
     fit-margin-bottom="0"><inkscape:grid
       type="xygrid"
       id="grid4583"
       originx="-1262.8182"
       originy="632.20781"
       spacingx="1"
       spacingy="1" /></sodipodi:namedview><defs
     id="defs8623"><inkscape:perspective
       id="perspective1773"
       inkscape:persp3d-origin="750 : 249.99999 : 1"
       inkscape:vp_z="1500 : 374.99999 : 1"
       inkscape:vp_y="0 : 999.99998 : 0"
       inkscape:vp_x="0 : 374.99999 : 1"
       sodipodi:type="inkscape:persp3d" /></defs><g
     id="layer2"
     transform="translate(-1147.194,-559.414)"><path
       id="rect5767"
       d="m 1152.714,560.164 h 41.955 c 2.633,0 4.77,1.796 4.77,4.012 v 44.021 c 0,2.216 -2.137,4.012 -4.77,4.012 h -41.955 c -2.633,0 -4.77,-1.796 -4.77,-4.012 v -44.021 c 0,-2.217 2.137,-4.012 4.77,-4.012 z"
       inkscape:connector-curvature="0"
       style="fill:#656565" /><rect
       id="rect5769"
       x="1188.136"
       y="564.02802"
       width="11.279"
       height="34.563"
       style="fill:#d6d6d6" /><linearGradient
       id="path5771_1_"
       gradientUnits="userSpaceOnUse"
       x1="-298.42789"
       y1="-398.34769"
       x2="-301.45831"
       y2="-385.7207"
       gradientTransform="matrix(0.2087,0,0,-0.208,1254.9041,481.1358)"><stop
         offset="0"
         style="stop-color:#D6D6D6"
         id="stop8627" /><stop
         offset="1"
         style="stop-color:#656565"
         id="stop8629" /></linearGradient><path
       id="path5771"
       d="m 1190.296,567.043 9.094,-2.972 c -0.361,-2.857 -2.33,-3.846 -5.068,-3.938 -3.646,0.105 -7.203,0.261 -9.094,1.337 z"
       inkscape:connector-curvature="0"
       style="fill:url(#path5771_1_)" /><rect
       id="rect5773"
       x="1157.038"
       y="599.22198"
       width="33.469002"
       height="12.975"
       style="fill:#929292" /><linearGradient
       id="path5775_1_"
       gradientUnits="userSpaceOnUse"
       x1="1643.8143"
       y1="-583.50488"
       x2="1663.8613"
       y2="-599.16351"
       gradientTransform="matrix(-0.2087,0,0,-0.208,1537.7977,481.1358)"><stop
         offset="0"
         style="stop-color:#D6D6D6"
         id="stop8634" /><stop
         offset="1"
         style="stop-color:#939393"
         id="stop8636" /></linearGradient><path
       id="path5775"
       d="m 1188.597,596.175 10.805,1.156 0.039,10.505 c -0.01,2.71 -2.166,4.267 -4.4,4.36 l -4.811,-0.053 -5.322,-12.344 z"
       inkscape:connector-curvature="0"
       style="fill:url(#path5775_1_)" /><linearGradient
       id="path5777_1_"
       gradientUnits="userSpaceOnUse"
       x1="-497.9552"
       y1="-583.99811"
       x2="-475.05191"
       y2="-599.65588"
       gradientTransform="matrix(0.2087,0,0,-0.208,1254.9041,481.1358)"><stop
         offset="0"
         style="stop-color:#656565"
         id="stop8640" /><stop
         offset="1"
         style="stop-color:#939393"
         id="stop8642" /></linearGradient><path
       id="path5777"
       d="m 1155.456,596.071 -7.484,1.261 -0.039,10.505 c 0.01,2.71 2.166,4.267 4.4,4.36 l 4.811,-0.053 1.686,-12.292 z"
       inkscape:connector-curvature="0"
       style="fill:url(#path5777_1_)" /><path
       id="rect5779"
       d="m 1159.485,560.821 h 26.994 c 2.635,0 4.77,2.129 4.77,4.755 v 30.736 c 0,2.626 -2.135,4.754 -4.77,4.754 h -26.994 c -2.635,0 -4.771,-2.128 -4.771,-4.754 v -30.736 c 0,-2.626 2.136,-4.755 4.771,-4.755 z"
       inkscape:connector-curvature="0"
       style="fill:#f1f1f1" /><linearGradient
       id="rect5781_1_"
       gradientUnits="userSpaceOnUse"
       x1="-556.36542"
       y1="-637.35059"
       x2="-479.81339"
       y2="-637.35059"
       gradientTransform="matrix(0.2087,0,0,-0.208,1281.6346,448.3741)"><stop
         offset="0"
         style="stop-color:#D8D8D8"
         id="stop8647" /><stop
         offset="1"
         style="stop-color:#B1B1B1"
         id="stop8649" /></linearGradient><path
       id="rect5781"
       d="m 1159.485,560.821 h 25.939 c 2.635,0 4.771,2.129 4.771,4.755 v 30.736 c 0,2.626 -2.137,4.754 -4.771,4.754 h -25.939 c -2.635,0 -4.771,-2.128 -4.771,-4.754 v -30.736 c 0,-2.626 2.136,-4.755 4.771,-4.755 z"
       inkscape:connector-curvature="0"
       style="fill:url(#rect5781_1_)" /><path
       id="rect5791"
       d="m 1152.714,560.164 h 41.955 c 2.633,0 4.77,1.796 4.77,4.012 v 44.021 c 0,2.216 -2.137,4.012 -4.77,4.012 h -41.955 c -2.633,0 -4.77,-1.796 -4.77,-4.012 v -44.021 c 0,-2.217 2.137,-4.012 4.77,-4.012 z"
       inkscape:connector-curvature="0"
       style="fill:none;stroke:#000000;stroke-width:1.5" /></g></svg>