<?xml version="1.0" encoding="UTF-8" standalone="no"?>
<svg
   xmlns:dc="http://purl.org/dc/elements/1.1/"
   xmlns:cc="http://creativecommons.org/ns#"
   xmlns:rdf="http://www.w3.org/1999/02/22-rdf-syntax-ns#"
   xmlns:svg="http://www.w3.org/2000/svg"
   xmlns="http://www.w3.org/2000/svg"
   xmlns:xlink="http://www.w3.org/1999/xlink"
   xmlns:sodipodi="http://sodipodi.sourceforge.net/DTD/sodipodi-0.dtd"
   xmlns:inkscape="http://www.inkscape.org/namespaces/inkscape"
   width="1600"
   height="198"
   version="1.1"
   id="svg6702"
   sodipodi:docname="wave.svg"
   inkscape:version="0.92.2 5c3e80d, 2017-08-06">
  <sodipodi:namedview
     pagecolor="#ffffff"
     bordercolor="#666666"
     borderopacity="1"
     objecttolerance="10"
     gridtolerance="10"
     guidetolerance="10"
     inkscape:pageopacity="0"
     inkscape:pageshadow="2"
     inkscape:window-width="1440"
     inkscape:window-height="803"
     id="namedview6704"
     showgrid="false"
     inkscape:zoom="0.58625"
     inkscape:cx="800"
     inkscape:cy="99"
     inkscape:window-x="0"
     inkscape:window-y="1"
     inkscape:window-maximized="1"
     inkscape:current-layer="svg6702" />
  <defs
     id="defs6698">
    <linearGradient
       gradientUnits="userSpaceOnUse"
       gradientTransform="scale(2.3349409,0.42827636)"
       y2="430.60922"
       y1="45.211651"
       x2="196.68988"
       x1="418.57761"
       id="linearGradient7281">
      <stop
         style="stop-color:#0034c1;stop-opacity:0.25098041"
         id="stop7277"
         offset="0%"
         stop-opacity=".25"
         stop-color="#57BBC1" />
      <stop
         id="stop7279"
         offset="100%"
         stop-color="#015871" />
    </linearGradient>
    <linearGradient
       y2="100%"
       y1="-10.959%"
       x2="50%"
       x1="50%"
       id="a">
      <stop
         id="stop7251"
         offset="0%"
         stop-opacity=".25"
         stop-color="#57BBC1" />
      <stop
         id="stop7253"
         offset="100%"
         stop-color="#015871" />
    </linearGradient>
    <linearGradient
       id="a-2"
       x1="418.57761"
       x2="196.68988"
       y1="45.211651"
       y2="430.60922"
       gradientTransform="scale(2.3349409,0.42827636)"
       gradientUnits="userSpaceOnUse">
      <stop
         stop-color="#57BBC1"
         stop-opacity=".25"
         offset="0%"
         id="stop6693"
         style="stop-color:#007ec1;stop-opacity:0.25098041" />
      <stop
         stop-color="#015871"
         offset="100%"
         id="stop6695" />
    </linearGradient>
    <linearGradient
       inkscape:collect="always"
       xlink:href="#linearGradient7281"
       id="linearGradient7275"
       gradientUnits="userSpaceOnUse"
       gradientTransform="matrix(-2.3349409,0,0,0.36506236,1600,29.224992)"
       x1="353.55997"
       y1="91.936722"
       x2="350.83286"
       y2="393.22916" />
  </defs>
  <path
     d="m 1599.995,132.36528 c -32.1755,0 -88.1451,-12.2841 -136.6219,-42.585087 -22.6228,-14.140663 -28.9368,-46.882089 -57.1028,-57.466289 -27.1144,-10.188987 -64.9947,63.967802 -99.6593,63.931736 -23.8258,-0.02479 -46.1323,-74.696396 -62.3799,-76.646077 -51.9223,-6.230593 -76.1836,50.782586 -108.2984,60.929324 C 1085.4621,96.47523 1090.6341,-9.0956731 1019.793,9.4110784 977.46848,20.468059 960.38771,87.415279 921.31283,85.749592 882.72976,84.10487 875.63844,16.319784 835.74371,17.234401 810.2191,17.819572 779.56829,85.493894 754.21552,83.564786 723.62115,81.236842 693.29001,17.438573 663.55549,15.264546 630.99418,12.88384 604.12602,68.836687 573.10815,63.550133 535.37683,57.119366 514.99114,26.362075 468.49403,16.211472 440.88065,10.183302 401.90535,85.050106 356.60098,92.813658 309.36493,61.723531 306.26252,10.24075 261.17107,19.793582 187.79366,35.338925 73.506527,130.98633 0,132.36528 V 198 h 1600 c 0,0 -0.01,-40.91516 -0.01,-65.63472 z"
     id="path6700"
     inkscape:connector-curvature="0"
     style="fill:url(#linearGradient7275);fill-rule:evenodd;stroke-width:0.92325461"
     sodipodi:nodetypes="csssssssssssscsccccc" />
</svg>
